<svg version="1.1" xmlns="http://www.w3.org/2000/svg" xmlns:xlink="http://www.w3.org/1999/xlink" width="20px" height="20px" viewBox="0,0,256,256"><g fill="#efc74b" fill-rule="nonzero" stroke="none" stroke-width="1" stroke-linecap="butt" stroke-linejoin="miter" stroke-miterlimit="10" stroke-dasharray="" stroke-dashoffset="0" font-family="none" font-weight="none" font-size="none" text-anchor="none" style="mix-blend-mode: normal"><g><g><g><g><g transform="scale(12.8,12.8)"><g><path d="M7.824,5.937c0.27457,0.00008 0.5371,-0.11274 0.726,-0.312c0.77343,-0.78128 2.02657,-0.81001 2.835,-0.065c0.39792,0.38329 1.03121,0.37142 1.4145,-0.0265c0.38329,-0.39792 0.37142,-1.03121 -0.0265,-1.4145c-0.76725,-0.73997 -1.79845,-1.14255 -2.86411,-1.11813c-1.06566,0.02442 -2.07734,0.4738 -2.80989,1.24813c-0.27485,0.28991 -0.35078,0.71558 -0.19312,1.08264c0.15765,0.36706 0.51864,0.60507 0.91812,0.60536z"></path><path d="M17,7c0,-3.86599 -3.13401,-7 -7,-7c-3.86599,0 -7,3.13401 -7,7c-1.65685,0 -3,1.34315 -3,3v2c0,1.65685 1.34315,3 3,3h1c0.55228,0 1,-0.44772 1,-1v-7c0,-2.76142 2.23858,-5 5,-5c2.76142,0 5,2.23858 5,5v7.083c-0.00165,1.61033 -1.30667,2.91535 -2.917,2.917h-0.083c0,-1.10457 -0.89543,-2 -2,-2h-1c-1.10457,0 -2,0.89543 -2,2v1c0,1.10457 0.89543,2 2,2h1c0.71133,-0.00214 1.36759,-0.38325 1.722,-1h0.361c2.35901,-0.00442 4.38289,-1.6826 4.824,-4h0.093c1.65685,0 3,-1.34315 3,-3v-2c0,-1.65685 -1.34315,-3 -3,-3z"></path></g></g></g></g></g></g></g></svg>