<svg version="1.1" xmlns="http://www.w3.org/2000/svg" xmlns:xlink="http://www.w3.org/1999/xlink" width="20px" height="18px" viewBox="0,0,256,230.39063"><g fill="none" fill-rule="nonzero" stroke="#efc74b" stroke-width="2" stroke-linecap="round" stroke-linejoin="round" stroke-miterlimit="10" stroke-dasharray="" stroke-dashoffset="0" font-family="none" font-weight="none" font-size="none" text-anchor="none" style="mix-blend-mode: normal"><g transform="translate(0.003,-0.00504) scale(12.8,12.8)"><path d="M15,13v2.833c0.00027,0.30959 -0.1226,0.60657 -0.34151,0.82549c-0.21891,0.21891 -0.5159,0.34178 -0.82549,0.34151h-11.666c-0.64452,0 -1.167,-0.52248 -1.167,-1.167v-11.666c-0.00027,-0.30959 0.1226,-0.60657 0.34151,-0.82549c0.21891,-0.21891 0.5159,-0.34178 0.82549,-0.34151h6.616M14.304,2.844l2.852,2.852M18.409,1.591c0.78738,0.78763 0.78738,2.06437 0,2.852l-7.844,7.844l-3.565,0.713l0.713,-3.565l7.844,-7.844c0.37811,-0.37836 0.89109,-0.59095 1.426,-0.59095c0.53491,0 1.04789,0.21258 1.426,0.59095z"></path></g></g></svg>